<svg width="86" height="86" viewBox="0 0 86 86" fill="none" xmlns="http://www.w3.org/2000/svg">
<path d="M44.3078 26.6408H44.3636C47.7164 26.6408 50.4445 29.369 50.4437 32.7233L44.3078 26.6408ZM44.3078 26.6408V18.5917H46.3861H46.6361V18.3417V16.7853V16.5353H46.3861H44.3078V15.4453V15.1953H44.0578H42.5014H42.2514V15.4453V16.5353H42.1933C38.8397 16.5353 36.1116 19.2635 36.1116 22.617C36.1116 25.9698 38.8398 28.6972 42.1933 28.6972H42.2514V36.7455H40.1692H39.9192V36.9955V38.5518V38.8018H40.1692H42.2514V39.8934V40.1434H42.5014H44.0578H44.3078V39.8934V38.8018H44.3636C47.7163 38.8018 50.4437 36.0753 50.4437 32.7233L44.3078 26.6408ZM44.3636 36.7455H44.3078V28.6972H44.3636C46.5817 28.6972 48.3874 30.5033 48.3874 32.7233V32.7233C48.3881 34.9406 46.5828 36.7455 44.3636 36.7455ZM42.194 26.6408C39.9749 26.6408 38.1687 24.8352 38.1687 22.617C38.1687 20.398 39.975 18.5917 42.194 18.5917H42.2522V26.6408H42.194Z" fill="#D78E00" stroke="#D78E00" stroke-width="0.5"/>
<path d="M43.2803 8.75C32.8469 8.75 24.3586 17.2367 24.3586 27.6693C24.3586 38.102 32.8469 46.5887 43.2803 46.5887C53.7106 46.5887 62.1957 38.1019 62.1957 27.6693C62.1957 17.2368 53.7106 8.75 43.2803 8.75ZM43.2803 44.5323C33.9813 44.5323 26.415 36.9674 26.415 27.6693C26.415 18.3712 33.9813 10.8064 43.2803 10.8064C52.5761 10.8064 60.1394 18.3711 60.1394 27.6693C60.1394 36.9675 52.5761 44.5323 43.2803 44.5323Z" fill="#D78E00" stroke="#D78E00" stroke-width="0.5"/>
<path d="M7.99988 61.4141H7.74988V61.6641V76.4293V76.6793H7.99988H9.55624H9.80624V76.4293V61.6641V61.4141H9.55624H7.99988Z" fill="#D78E00" stroke="#D78E00" stroke-width="0.5"/>
<path d="M15.6665 43.2422H15.4165V43.4922V76.4302V76.6802H15.6665H17.2229H17.4729V76.4302V43.4922V43.2422H17.2229H15.6665Z" fill="#D78E00" stroke="#D78E00" stroke-width="0.5"/>
<path d="M23.3325 53.4609H23.0825V53.7109V76.4268V76.6768H23.3325H24.8888H25.1388V76.4268V53.7109V53.4609H24.8888H23.3325Z" fill="#D78E00" stroke="#D78E00" stroke-width="0.5"/>
<path d="M30.999 58.1484H30.749V58.3984V76.4265V76.6765H30.999H32.5554H32.8054V76.4265V58.3984V58.1484H32.5554H30.999Z" fill="#D78E00" stroke="#D78E00" stroke-width="0.5"/>
<path d="M38.6656 63.1172H38.4156V63.3672V76.4282V76.6782H38.6656H40.222H40.472V76.4282V63.3672V63.1172H40.222H38.6656Z" fill="#D78E00" stroke="#D78E00" stroke-width="0.5"/>
<path d="M46.3324 51.4766H46.0824V51.7266V76.4299V76.6799H46.3324H47.8888H48.1388V76.4299V51.7266V51.4766H47.8888H46.3324Z" fill="#D78E00" stroke="#D78E00" stroke-width="0.5"/>
<path d="M53.9982 51.4766H53.7482V51.7266V76.4299V76.6799H53.9982H55.5545H55.8045V76.4299V51.7266V51.4766H55.5545H53.9982Z" fill="#D78E00" stroke="#D78E00" stroke-width="0.5"/>
<path d="M61.6648 52.4844H61.4148V52.7344V76.4292V76.6792H61.6648H63.2212H63.4712V76.4292V52.7344V52.4844H63.2212H61.6648Z" fill="#D78E00" stroke="#D78E00" stroke-width="0.5"/>
<path d="M69.3319 65.5312H69.0819V65.7812V76.4268V76.6768H69.3319H70.8883H71.1383V76.4268V65.7812V65.5312H70.8883H69.3319Z" fill="#D78E00" stroke="#D78E00" stroke-width="0.5"/>
<path d="M76.9989 70H76.7489V70.25V76.4272V76.6772H76.9989H78.5553H78.8053V76.4272V70.25V70H78.5553H76.9989Z" fill="#D78E00" stroke="#D78E00" stroke-width="0.5"/>
</svg>
