<svg width="86" height="86" viewBox="0 0 86 86" fill="none" xmlns="http://www.w3.org/2000/svg">
<path d="M29.4266 30.1869C26.0807 33.7366 24.3165 38.3768 24.4606 43.2523C24.6046 48.1279 26.6377 52.6563 30.188 56.0022C33.7095 59.3221 38.2133 60.9676 42.7088 60.9676C47.5665 60.9676 52.4145 59.0463 56.0019 55.2409C59.3478 51.6912 61.112 47.051 60.968 42.1755C60.8239 37.2999 58.7908 32.7715 55.2405 29.4256C47.9149 22.5191 36.3338 22.8606 29.4266 30.1869ZM53.9579 53.3134C51.1264 56.3171 47.2948 58.038 43.1697 58.1594C39.0665 58.298 35.1198 56.7903 32.1141 53.9582C29.1111 51.1267 27.3908 47.2952 27.2687 43.1694C27.1466 39.0442 28.6392 35.118 31.4707 32.1144C34.3021 29.1107 38.1337 27.3898 42.2588 27.2684C42.4152 27.2636 42.5702 27.2615 42.7266 27.2615C46.6802 27.2615 50.424 28.7458 53.3145 31.4696C56.3174 34.3011 58.0377 38.1326 58.1598 42.2584C58.2819 46.3836 56.7893 50.3098 53.9579 53.3134Z" fill="#D78E00"/>
<path d="M42.7143 35.6894C44.2631 35.6894 45.5238 36.9494 45.5238 38.4989C45.5238 39.2747 46.1521 39.9037 46.9286 39.9037C47.705 39.9037 48.3333 39.2747 48.3333 38.4989C48.3333 35.8884 46.536 33.7075 44.119 33.0793V31.4751C44.119 30.6993 43.4907 30.0703 42.7143 30.0703C41.9378 30.0703 41.3095 30.6993 41.3095 31.4751V33.0793C38.8926 33.7075 37.0952 35.8884 37.0952 38.4989C37.0952 41.5972 39.6153 44.1179 42.7143 44.1179C44.2631 44.1179 45.5238 45.378 45.5238 46.9275C45.5238 48.477 44.2631 49.737 42.7143 49.737C41.1655 49.737 39.9047 48.477 39.9047 46.9275C39.9047 46.1517 39.2764 45.5227 38.5 45.5227C37.7235 45.5227 37.0952 46.1517 37.0952 46.9275C37.0952 49.538 38.8926 51.7189 41.3095 52.3471V53.9513C41.3095 54.7271 41.9378 55.3561 42.7143 55.3561C43.4907 55.3561 44.119 54.7271 44.119 53.9513V52.3471C46.536 51.7189 48.3333 49.538 48.3333 46.9275C48.3333 43.8292 45.8133 41.3084 42.7143 41.3084C41.1655 41.3084 39.9047 40.0484 39.9047 38.4989C39.9047 36.9494 41.1655 35.6894 42.7143 35.6894Z" fill="#D78E00"/>
<path d="M66.5486 20.8755C65.9546 21.3742 65.8778 22.2604 66.3771 22.8544C71.0469 28.4151 73.6191 35.4678 73.6191 42.7131C73.6191 59.7541 59.7553 73.6179 42.7143 73.6179C36.5072 73.6179 30.4505 71.7183 25.3454 68.2426L27.7338 67.7965C28.4965 67.6546 28.9986 66.9206 28.8573 66.1579C28.7147 65.3958 27.9931 64.8869 27.218 65.035L21.6936 66.0667C21.6191 66.0806 21.557 66.1243 21.4866 66.1496C21.4095 66.1769 21.3339 66.1985 21.2619 66.2395C21.1677 66.2931 21.0913 66.3652 21.0117 66.4392C20.9686 66.4791 20.9147 66.5013 20.876 66.5475C20.8628 66.5631 20.8603 66.583 20.8479 66.5989C20.8319 66.6197 20.8073 66.6313 20.7923 66.6531C20.747 66.7195 20.7324 66.7986 20.6994 66.8707C20.664 66.9473 20.6228 67.019 20.6019 67.0992C20.5801 67.184 20.5804 67.2691 20.5746 67.3567C20.5681 67.4526 20.558 67.5449 20.5709 67.6398C20.5739 67.6618 20.566 67.6835 20.57 67.7053L21.6017 73.229C21.7279 73.9047 22.3178 74.3759 22.9817 74.3759C23.0668 74.3759 23.1532 74.3683 23.241 74.3519C24.0038 74.2099 24.5058 73.476 24.3645 72.7132L23.99 70.7072C29.5133 74.4032 36.032 76.4275 42.7143 76.4275C61.3041 76.4275 76.4286 61.3029 76.4286 42.7131C76.4286 34.8079 73.6232 27.114 68.5282 21.0477C68.0316 20.4564 67.1454 20.3755 66.5486 20.8755Z" fill="#D78E00"/>
<path d="M11.8095 42.7143C11.8095 25.6733 25.6733 11.8095 42.7143 11.8095C48.9793 11.8095 55.0942 13.7396 60.2289 17.2777L57.6852 17.858C56.9293 18.0308 56.456 18.784 56.6289 19.5405C56.7771 20.1915 57.356 20.6325 57.9966 20.6325C58.1009 20.6325 58.2051 20.6215 58.3108 20.5975L63.7899 19.3471C63.846 19.3343 63.8908 19.2973 63.9444 19.2779C64.0323 19.2465 64.1154 19.2141 64.1965 19.1651C64.2793 19.1149 64.3481 19.0532 64.4189 18.9871C64.4614 18.9475 64.5145 18.9257 64.5526 18.88C64.5735 18.8552 64.5784 18.824 64.5973 18.7982C64.6175 18.7708 64.6483 18.754 64.6665 18.725C64.7011 18.6701 64.7083 18.6052 64.7347 18.5467C64.7722 18.4637 64.8094 18.3847 64.8299 18.2976C64.8502 18.212 64.8533 18.128 64.8573 18.04C64.8617 17.9438 64.8641 17.852 64.849 17.7571C64.844 17.7262 64.8532 17.6952 64.8462 17.6645L63.5951 12.1861C63.4222 11.4295 62.665 10.9549 61.9132 11.1291C61.1573 11.3019 60.6841 12.0551 60.8569 12.8117L61.2679 14.6116C55.7806 10.9873 49.3287 9 42.7143 9C24.1245 9 9 24.1245 9 42.7143C9 50.6196 11.8054 58.3135 16.9004 64.3798C17.1775 64.7104 17.5754 64.8812 17.9773 64.8812C18.2956 64.8812 18.6166 64.7735 18.88 64.552C19.474 64.0533 19.5508 63.1671 19.0515 62.5731C14.3817 57.0123 11.8095 49.9597 11.8095 42.7143Z" fill="#D78E00"/>
</svg>
