<svg width="86" height="86" viewBox="0 0 86 86" fill="none" xmlns="http://www.w3.org/2000/svg">
<g clip-path="url(#clip0_501_195)">
<path d="M80.8215 15.7203L70.5708 3.77346C70.5512 3.75081 70.5311 3.72893 70.51 3.70799C69.6148 2.81284 68.1633 2.75987 67.2055 3.58706L59.037 10.64C58.034 11.5058 57.9231 13.0185 58.7894 14.0217L59.1092 14.3922L58.5823 14.8472C57.184 16.0549 55.0797 16.4161 52.9537 15.8131C52.9106 15.801 46.8609 14.0841 46.8172 14.0739C45.7147 13.8177 42.8617 13.413 40.1372 15.1708C40.0933 15.196 24.4826 24.1306 24.4403 24.1583C20.1884 26.928 22.2358 31.6991 25.479 32.2183C25.6203 35.9975 30.389 37.7383 32.9153 34.8197C39.1686 27.5947 38.9626 27.9089 39.2901 27.248L39.5289 27.1496C39.8408 28.3191 40.6934 29.4833 42.4358 29.9772C49.7437 32.0499 51.2112 32.6319 53.2387 32.4078C58.905 31.8006 60.2036 31.6147 63.0573 29.9722C65.11 28.7908 67.1078 27.4097 69.0105 25.8599L69.3584 26.2628C70.2258 27.2671 71.7394 27.375 72.7403 26.5105L80.5159 19.7966C81.7208 18.7566 81.8576 16.928 80.8215 15.7203ZM31.1433 33.2853C29.9711 34.6396 27.7589 33.7417 27.8234 31.9852C27.8234 31.9852 34.7473 29.1208 34.748 29.1206L31.1433 33.2853ZM61.8884 27.9403C59.4604 29.3378 58.6431 29.4706 53.0136 30.0742C51.4694 30.2397 50.2467 29.7558 43.0756 27.7219C42.1548 27.4608 41.9144 26.9685 41.8137 26.621C41.6761 26.1461 41.7639 25.6924 41.7636 25.6924C41.8225 25.4366 41.93 25.2177 42.0492 25.0569C42.2239 24.8213 42.4869 24.5917 43.1159 24.6786C45.3336 24.9838 50.6145 25.6899 50.6675 25.6971C51.3111 25.7828 51.8989 25.3322 51.9845 24.6906C52.0703 24.0491 51.6198 23.4594 50.9783 23.3736C50.9251 23.3666 45.6487 22.6611 43.4354 22.3566C41.3642 22.0711 40.1428 23.3506 39.6615 24.5594L37.952 25.2642C37.952 25.2642 27.5386 29.6089 26.5003 29.9086C24.6155 30.1733 23.3247 27.7202 25.6942 26.1394L41.328 17.1902C41.329 17.1897 41.3301 17.1891 41.3312 17.1885C41.3501 17.1775 41.3689 17.1661 41.3872 17.1542C43.3445 15.8799 45.4284 16.1617 46.2605 16.3513L52.3142 18.0685C55.2011 18.8869 58.1172 18.346 60.1142 16.6216L60.6411 16.1666C61.535 17.2019 66.6847 23.1658 67.4789 24.0856C65.6895 25.5386 63.8133 26.8324 61.8884 27.9403ZM78.9844 18.0222C78.9214 18.0766 71.1873 24.7936 71.1331 24.7306C71.079 24.668 60.5064 12.4685 60.5689 12.4144L68.7373 5.36127H68.7375C68.7533 5.34768 68.773 5.34096 68.7926 5.34096C68.8086 5.34096 68.8244 5.34534 68.8381 5.35409L79.0425 17.2469C79.2397 17.4764 79.2137 17.8244 78.9844 18.0222Z" fill="#D78E00"/>
<path d="M43.902 42.1202V39.6047C44.8598 39.6761 45.1884 40.1334 45.5886 40.1334C46.1175 40.1334 46.3462 39.4759 46.3462 39.1472C46.3462 38.3181 44.8312 38.0467 43.902 38.018V37.6464C43.902 37.4606 43.6591 37.2891 43.4162 37.2891C43.1447 37.2891 42.9305 37.4606 42.9305 37.6464V38.0466C41.5012 38.2323 40.1576 39.0184 40.1576 40.8334C40.1576 42.663 41.6297 43.2203 42.9305 43.7062V46.5505C41.6726 46.4075 41.2439 45.4784 40.7008 45.4784C40.2576 45.4784 39.9001 46.0787 39.9001 46.4789C39.9001 47.2794 41.2009 48.2083 42.9305 48.2513V48.6514C42.9305 48.8377 43.1447 49.0091 43.4162 49.0091C43.6592 49.0091 43.902 48.8377 43.902 48.6517V48.2088C45.5028 47.9516 46.6034 46.9367 46.6034 45.1786C46.6036 43.235 45.1744 42.5917 43.902 42.1202ZM43.0445 41.8058C42.387 41.5484 41.9012 41.2769 41.9012 40.648C41.9012 40.105 42.33 39.7619 43.0445 39.6475V41.8058ZM43.788 46.5367V44.0497C44.4025 44.3212 44.8598 44.6644 44.8598 45.3647C44.8598 46.0364 44.4167 46.408 43.788 46.5367Z" fill="#D78E00"/>
<path d="M60.7475 53.8395C60.6063 50.0601 55.8371 48.3196 53.3114 51.2381L47.5252 57.9234C47.2906 58.1943 47.0942 58.4914 46.9364 58.8099L46.6977 58.9084C46.3858 57.7389 45.5331 56.5746 43.7908 56.0807C36.105 53.9007 35.1036 53.4642 33.0105 53.6479C33.003 53.6485 32.9955 53.6493 32.988 53.6501C27.3217 54.2576 26.023 54.4434 23.1692 56.0857C21.1164 57.2673 19.1186 58.6484 17.2161 60.1982L16.8681 59.7953C16.0036 58.7945 14.4867 58.6834 13.4863 59.5476L5.28705 66.6268C4.81517 67.034 4.53158 67.601 4.48845 68.2228C4.44549 68.8448 4.64799 69.4453 5.05924 69.914L15.8652 82.2284C16.6741 83.1501 18.0813 83.2656 18.9997 82.4889C19.0035 82.4856 19.0175 82.4737 19.0214 82.4704L27.1897 75.4173C28.1927 74.5512 28.3038 73.0387 27.4375 72.0356L27.1177 71.6651L27.6446 71.2103C29.0428 70.0028 31.1472 69.6414 33.2731 70.2443L39.2092 71.9281C39.8319 72.1046 40.48 71.7431 40.6567 71.1204C40.8333 70.4978 40.4716 69.8496 39.8489 69.6731L33.9127 67.9893C31.0258 67.1707 28.1099 67.7118 26.1127 69.436L25.5858 69.8909L21.0736 64.6653L18.748 61.9721C20.5372 60.5192 22.4133 59.2253 24.3385 58.1173C26.7685 56.7187 27.5844 56.5868 33.2263 55.9821C34.8205 55.8434 35.6999 56.2223 43.1513 58.3357C44.0721 58.5968 44.3125 59.0892 44.4131 59.4367C44.5508 59.9115 44.463 60.3653 44.4633 60.3653C44.4064 60.6153 44.2986 60.8376 44.1777 61.0009C44.003 61.2364 43.7388 61.4657 43.1111 61.3792C40.8931 61.074 35.6124 60.3679 35.5594 60.3607C34.9156 60.2754 34.3281 60.7254 34.2424 61.3671C34.1566 62.0087 34.6071 62.5984 35.2486 62.6842C35.3017 62.6912 40.5781 63.3967 42.7914 63.7012C42.9902 63.7285 43.181 63.7415 43.3641 63.7415C45.09 63.7415 46.1294 62.5912 46.5647 61.4987L48.2749 60.7935C48.2749 60.7935 58.3467 56.6451 58.4724 56.5812C59.1417 56.2365 59.5561 56.1984 59.7271 56.149C61.6119 55.8846 62.9022 58.3378 60.5327 59.9184C44.0656 69.3443 44.4367 69.1435 44.4367 69.1435C43.8686 69.4537 43.6596 70.1659 43.97 70.7339C44.2803 71.3018 44.9927 71.5114 45.5603 71.2006L61.7864 61.8993C66.0366 59.1314 63.9924 54.3587 60.7475 53.8395ZM25.6631 73.5676C25.7178 73.63 17.6375 80.5682 17.5747 80.6225L6.83658 68.3856L15.018 61.3212C15.023 61.317 15.0361 61.3059 15.0567 61.3084C15.0791 61.31 15.0892 61.3218 15.0935 61.3268L25.6631 73.5676ZM51.4789 56.9368L55.0836 52.7718C56.236 51.4404 58.4689 52.2867 58.4033 54.0721C58.4033 54.0721 51.48 56.9364 51.4789 56.9368Z" fill="#D78E00"/>
<path d="M51.8484 44.6136C51.229 44.4242 50.5742 44.7722 50.3847 45.3912C49.4225 48.5331 46.5111 50.6436 43.2814 50.6436C39.2136 50.6436 35.8503 47.342 35.8503 43.2125C35.8503 39.1152 39.1839 35.7816 43.2814 35.7816C46.3915 35.7814 49.1973 37.7445 50.2634 40.6664C50.4851 41.2745 51.1576 41.5877 51.7661 41.3659C52.3743 41.1441 52.6875 40.4713 52.4656 39.8633C51.0634 36.0198 47.3726 33.4375 43.2814 33.4375C37.8912 33.4375 33.5062 37.8227 33.5062 43.2125C33.5062 48.6547 37.9375 52.9877 43.2814 52.9877C47.5117 52.9877 51.3534 50.2338 52.6259 46.0775C52.8154 45.4586 52.4673 44.8031 51.8484 44.6136Z" fill="#D78E00"/>
</g>
<defs>
<clipPath id="clip0_501_195">
<rect width="80" height="80" fill="white" transform="translate(3 3)"/>
</clipPath>
</defs>
</svg>
