<svg width="82" height="82" viewBox="0 0 82 82" fill="none" xmlns="http://www.w3.org/2000/svg">
<path fill-rule="evenodd" clip-rule="evenodd" d="M74.5135 43.973C78.8378 46.4054 81.5405 51.2703 81.5405 56.4054C81.5405 64.5135 75.0541 71 66.946 71H18.027C8.56757 71 1 63.4324 1 53.973C1 48.5676 3.43243 43.7027 7.48649 40.4595C8.2973 31.5405 15.8649 24.5135 24.7838 24.5135C25.5946 24.5135 26.1351 24.5135 26.6757 24.7838C29.9189 16.6757 37.7568 11 46.9459 11C58.8378 11 68.5676 20.7297 68.5676 32.6216C68.5676 32.8919 68.5676 32.8919 68.5676 32.8919C72.0811 35.3243 74.2432 39.3784 74.5135 43.973ZM70.1892 46.4054C74.5135 47.7568 77.7568 51.8108 77.7568 56.4054C77.7568 62.3513 72.8919 67.2162 66.946 67.2162H57.7568H30.1892H18.027C11 67.2162 5.05405 61.2703 5.05405 53.973C5.05405 49.1081 7.48649 44.7838 11.5405 42.6216C11.5405 42.3513 11.5405 42.3513 11.5405 42.0811C11.5405 34.5135 17.4865 28.5676 24.7838 28.5676C26.4054 28.5676 28.027 28.8378 29.3784 29.3784C31 21.2703 38.2973 15.0541 46.9459 15.0541C56.6757 15.0541 64.7838 22.8919 64.7838 32.6216C64.7838 33.7027 64.5135 34.2432 64.5135 35.0541C68.027 36.6757 70.4595 40.1892 70.4595 44.2432C70.4595 45.0541 70.4595 45.5946 70.1892 46.4054Z" fill="#FFA900"/>
<path d="M39.3784 55.5914L32.8919 48.0239C31.2703 46.4022 28.5676 48.5644 30.1892 50.4563L41.2703 62.8887L52.6216 50.4563C54.2432 48.5644 51.5405 46.4022 49.9189 48.0239L43.1621 55.5914V32.3482C43.1621 30.186 39.3784 30.186 39.3784 32.3482V55.5914Z" fill="#FFA900"/>
</svg>
