<svg width="150" height="150" viewBox="0 0 150 150" fill="none" xmlns="http://www.w3.org/2000/svg">
<g opacity="0.5">
<path d="M81.3613 69.3477C81.3613 65.578 78.3771 62.5938 74.6074 62.5938C70.8378 62.5938 67.8535 65.578 67.8535 69.3477C67.8535 72.0178 69.4242 74.2167 71.4661 75.3162L68.7959 85.2116C68.6388 85.6828 68.7959 86.1539 69.11 86.6251C69.4242 87.0963 69.8954 87.2534 70.3666 87.2534H78.5341C79.0053 87.2534 79.4765 87.0963 79.7907 86.6251C80.1048 86.1539 80.2619 85.6828 80.1048 85.2116L77.4346 75.3162C79.7907 74.2167 81.3613 72.0178 81.3613 69.3477Z" fill="#FFA900"/>
<rect x="51" y="51" width="48" height="48" rx="10" stroke="#FFA900" stroke-width="8"/>
<path d="M100 75H121" stroke="#FFA900" stroke-width="7"/>
<path d="M27 75H48" stroke="#FFA900" stroke-width="7"/>
<path d="M108 120H94.677C94.2681 120 93.9004 119.751 93.7486 119.371L86 100" stroke="#FFA900" stroke-width="7"/>
<path d="M41 120H54.323C54.7319 120 55.0996 119.751 55.2514 119.371L63 100" stroke="#FFA900" stroke-width="7"/>
<path d="M41 30H54.323C54.7319 30 55.0996 30.249 55.2514 30.6286L63 50" stroke="#FFA900" stroke-width="7"/>
<path d="M108 30H94.677C94.2681 30 93.9004 30.249 93.7486 30.6286L86 50" stroke="#FFA900" stroke-width="7"/>
<path d="M43 30C43 38.2843 36.2843 45 28 45C19.7157 45 13 38.2843 13 30C13 21.7157 19.7157 15 28 15C36.2843 15 43 21.7157 43 30ZM19.5344 30C19.5344 34.6754 23.3246 38.4656 28 38.4656C32.6754 38.4656 36.4656 34.6754 36.4656 30C36.4656 25.3246 32.6754 21.5344 28 21.5344C23.3246 21.5344 19.5344 25.3246 19.5344 30Z" fill="#FFA900"/>
<path d="M30 75C30 83.2843 23.2843 90 15 90C6.71573 90 0 83.2843 0 75C0 66.7157 6.71573 60 15 60C23.2843 60 30 66.7157 30 75ZM6.53436 75C6.53436 79.6754 10.3246 83.4656 15 83.4656C19.6754 83.4656 23.4656 79.6754 23.4656 75C23.4656 70.3246 19.6754 66.5344 15 66.5344C10.3246 66.5344 6.53436 70.3246 6.53436 75Z" fill="#FFA900"/>
<path d="M43 120C43 128.284 36.2843 135 28 135C19.7157 135 13 128.284 13 120C13 111.716 19.7157 105 28 105C36.2843 105 43 111.716 43 120ZM19.5344 120C19.5344 124.675 23.3246 128.466 28 128.466C32.6754 128.466 36.4656 124.675 36.4656 120C36.4656 115.325 32.6754 111.534 28 111.534C23.3246 111.534 19.5344 115.325 19.5344 120Z" fill="#FFA900"/>
<path d="M136 30C136 38.2843 129.284 45 121 45C112.716 45 106 38.2843 106 30C106 21.7157 112.716 15 121 15C129.284 15 136 21.7157 136 30ZM112.534 30C112.534 34.6754 116.325 38.4656 121 38.4656C125.675 38.4656 129.466 34.6754 129.466 30C129.466 25.3246 125.675 21.5344 121 21.5344C116.325 21.5344 112.534 25.3246 112.534 30Z" fill="#FFA900"/>
<path d="M149 75C149 83.2843 142.284 90 134 90C125.716 90 119 83.2843 119 75C119 66.7157 125.716 60 134 60C142.284 60 149 66.7157 149 75ZM125.534 75C125.534 79.6754 129.325 83.4656 134 83.4656C138.675 83.4656 142.466 79.6754 142.466 75C142.466 70.3246 138.675 66.5344 134 66.5344C129.325 66.5344 125.534 70.3246 125.534 75Z" fill="#FFA900"/>
<path d="M136 120C136 128.284 129.284 135 121 135C112.716 135 106 128.284 106 120C106 111.716 112.716 105 121 105C129.284 105 136 111.716 136 120ZM112.534 120C112.534 124.675 116.325 128.466 121 128.466C125.675 128.466 129.466 124.675 129.466 120C129.466 115.325 125.675 111.534 121 111.534C116.325 111.534 112.534 115.325 112.534 120Z" fill="#FFA900"/>
</g>
</svg>
