<svg width="86" height="86" viewBox="0 0 86 86" fill="none" xmlns="http://www.w3.org/2000/svg">
<path d="M57.8714 29.2266H27.5285C26.8579 29.2266 26.2147 29.5818 25.7405 30.214C25.2663 30.8463 24.9999 31.7038 24.9999 32.598V73.0551C24.9999 73.9493 25.2663 74.8068 25.7405 75.4391C26.2147 76.0714 26.8579 76.4266 27.5285 76.4266H57.8714C58.542 76.4266 59.1851 76.0714 59.6593 75.4391C60.1335 74.8068 60.3999 73.9493 60.3999 73.0551V32.598C60.3999 31.7038 60.1335 30.8463 59.6593 30.214C59.1851 29.5818 58.542 29.2266 57.8714 29.2266V29.2266ZM58.7142 73.0551C58.7142 73.3532 58.6254 73.639 58.4674 73.8498C58.3093 74.0605 58.0949 74.1789 57.8714 74.1789H27.5285C27.305 74.1789 27.0906 74.0605 26.9325 73.8498C26.7745 73.639 26.6857 73.3532 26.6857 73.0551V32.598C26.6857 32.2999 26.7745 32.0141 26.9325 31.8033C27.0906 31.5926 27.305 31.4742 27.5285 31.4742H57.8714C58.0949 31.4742 58.3093 31.5926 58.4674 31.8033C58.6254 32.0141 58.7142 32.2999 58.7142 32.598V73.0551Z" fill="#D78E00"/>
<path d="M42.7 34.8438C40.0327 34.8438 37.4254 35.8983 35.2077 37.8741C32.99 39.8499 31.2615 42.6581 30.2408 45.9437C29.2201 49.2293 28.953 52.8446 29.4734 56.3326C29.9937 59.8206 31.2781 63.0245 33.1641 65.5392C35.0501 68.0538 37.453 69.7664 40.069 70.4602C42.685 71.154 45.3965 70.7979 47.8607 69.4369C50.3249 68.076 52.4311 65.7713 53.9129 62.8144C55.3947 59.8574 56.1857 56.381 56.1857 52.8247C56.1814 48.0576 54.7593 43.4873 52.2311 40.1165C49.703 36.7456 46.2753 34.8494 42.7 34.8438V34.8438ZM42.7 68.558C40.3661 68.558 38.0847 67.6353 36.1442 65.9065C34.2037 64.1777 32.6913 61.7205 31.7982 58.8456C30.9051 55.9707 30.6714 52.8072 31.1267 49.7553C31.582 46.7033 32.7058 43.8999 34.3561 41.6996C36.0064 39.4992 38.1089 38.0008 40.3979 37.3937C42.6869 36.7866 45.0595 37.0982 47.2156 38.289C49.3718 39.4798 51.2147 41.4964 52.5113 44.0837C53.8079 46.6711 54.5 49.7129 54.5 52.8247C54.4966 56.9961 53.2523 60.9953 51.0401 63.9449C48.8279 66.8945 45.8285 68.5536 42.7 68.558Z" fill="#D78E00"/>
<path d="M31.7428 26.981C32.4134 26.981 33.0566 26.6258 33.5308 25.9935C34.005 25.3612 34.2714 24.5037 34.2714 23.6095V15.7429H51.1285V23.6095C51.1285 24.5037 51.3949 25.3612 51.8691 25.9935C52.3433 26.6258 52.9865 26.981 53.6571 26.981C54.3277 26.981 54.9709 26.6258 55.4451 25.9935C55.9193 25.3612 56.1857 24.5037 56.1857 23.6095V12.3714C56.1857 11.4773 55.9193 10.6197 55.4451 9.98747C54.9709 9.3552 54.3277 9 53.6571 9H31.7428C31.0722 9 30.429 9.3552 29.9548 9.98747C29.4806 10.6197 29.2142 11.4773 29.2142 12.3714V23.6095C29.2142 24.5037 29.4806 25.3612 29.9548 25.9935C30.429 26.6258 31.0722 26.981 31.7428 26.981ZM30.8999 12.3714C30.8999 12.0734 30.9887 11.7875 31.1468 11.5768C31.3049 11.366 31.5193 11.2476 31.7428 11.2476H53.6571C53.8806 11.2476 54.095 11.366 54.2531 11.5768C54.4111 11.7875 54.4999 12.0734 54.4999 12.3714V23.6095C54.4999 23.9076 54.4111 24.1934 54.2531 24.4042C54.095 24.6149 53.8806 24.7333 53.6571 24.7333C53.4336 24.7333 53.2192 24.6149 53.0611 24.4042C52.903 24.1934 52.8142 23.9076 52.8142 23.6095V14.619C52.8142 14.321 52.7254 14.0351 52.5674 13.8244C52.4093 13.6136 52.1949 13.4952 51.9714 13.4952H33.4285C33.205 13.4952 32.9906 13.6136 32.8325 13.8244C32.6745 14.0351 32.5857 14.321 32.5857 14.619V23.6095C32.5857 23.9076 32.4969 24.1934 32.3388 24.4042C32.1807 24.6149 31.9663 24.7333 31.7428 24.7333C31.5193 24.7333 31.3049 24.6149 31.1468 24.4042C30.9887 24.1934 30.8999 23.9076 30.8999 23.6095V12.3714Z" fill="#D78E00"/>
<path d="M41.0143 46.089H44.3857C44.8328 46.089 45.2615 46.3258 45.5777 46.7473C45.8938 47.1688 46.0714 47.7405 46.0714 48.3366H47.7571C47.7571 47.1444 47.4019 46.001 46.7696 45.158C46.1374 44.315 45.2798 43.8414 44.3857 43.8414H43.5428V41.5938H41.8571V43.8414H41.0143C40.1201 43.8414 39.2626 44.315 38.6303 45.158C37.998 46.001 37.6428 47.1444 37.6428 48.3366V49.4604C37.6428 50.6526 37.998 51.796 38.6303 52.639C39.2626 53.4821 40.1201 53.9557 41.0143 53.9557H44.3857C44.8328 53.9557 45.2615 54.1925 45.5777 54.614C45.8938 55.0355 46.0714 55.6072 46.0714 56.2033V57.3271C46.0714 57.9232 45.8938 58.4949 45.5777 58.9164C45.2615 59.3379 44.8328 59.5747 44.3857 59.5747H41.0143C40.5672 59.5747 40.1384 59.3379 39.8223 58.9164C39.5061 58.4949 39.3285 57.9232 39.3285 57.3271H37.6428C37.6428 58.5193 37.998 59.6627 38.6303 60.5057C39.2626 61.3487 40.1201 61.8223 41.0143 61.8223H41.8571V64.0699H43.5428V61.8223H44.3857C45.2798 61.8223 46.1374 61.3487 46.7696 60.5057C47.4019 59.6627 47.7571 58.5193 47.7571 57.3271V56.2033C47.7571 55.0111 47.4019 53.8677 46.7696 53.0247C46.1374 52.1816 45.2798 51.708 44.3857 51.708H41.0143C40.5672 51.708 40.1384 51.4712 39.8223 51.0497C39.5061 50.6282 39.3285 50.0565 39.3285 49.4604V48.3366C39.3285 47.7405 39.5061 47.1688 39.8223 46.7473C40.1384 46.3258 40.5672 46.089 41.0143 46.089V46.089Z" fill="#D78E00"/>
</svg>
