<svg width="512" height="512" viewBox="0 0 512 512" fill="none" xmlns="http://www.w3.org/2000/svg">
<path fill-rule="evenodd" clip-rule="evenodd" d="M85.333 144H426.667C435.499 144 442.667 136.832 442.667 128C442.667 119.168 435.499 112 426.667 112H85.333C76.501 112 69.333 119.168 69.333 128C69.333 136.832 76.501 144 85.333 144Z" fill="white"/>
<path fill-rule="evenodd" clip-rule="evenodd" d="M85.333 272H426.667C435.499 272 442.667 264.832 442.667 256C442.667 247.168 435.499 240 426.667 240H85.333C76.501 240 69.333 247.168 69.333 256C69.333 264.832 76.501 272 85.333 272Z" fill="white"/>
<path fill-rule="evenodd" clip-rule="evenodd" d="M85.333 400H426.667C435.499 400 442.667 392.832 442.667 384C442.667 375.168 435.499 368 426.667 368H85.333C76.501 368 69.333 375.168 69.333 384C69.333 392.832 76.501 400 85.333 400Z" fill="white"/>
</svg>
