<svg width="150" height="150" viewBox="0 0 150 150" fill="none" xmlns="http://www.w3.org/2000/svg">
<g opacity="0.5">
<path d="M27.6667 22.75C26.8099 22.75 26.0764 23.0367 25.5566 23.5566C25.0367 24.0764 24.75 24.8099 24.75 25.6667V35.8C24.75 36.6568 25.0367 37.3902 25.5566 37.9101C26.0764 38.43 26.8099 38.7167 27.6667 38.7167H37.8C38.6568 38.7167 39.3902 38.43 39.9101 37.9101C40.43 37.3902 40.7167 36.6568 40.7167 35.8C40.7167 34.9432 40.43 34.2098 39.9101 33.6899C39.3902 33.17 38.6568 32.8833 37.8 32.8833H34.6855C45.5245 22.526 59.9418 16.5833 75.1333 16.5833C90.7995 16.5833 105.404 22.6898 116.558 33.5781C117.722 34.7411 119.48 34.7406 120.643 33.5768C121.808 32.4125 121.808 30.6542 120.643 29.4899C108.596 17.4424 92.2654 10.75 75.1333 10.75C58.2033 10.75 42.5763 17.0251 30.5833 28.8003V25.6667C30.5833 24.9187 30.2119 24.1916 29.6768 23.6566C29.1417 23.1215 28.4146 22.75 27.6667 22.75Z" fill="#FFA900" stroke="#FFA900" stroke-width="0.5"/>
<path d="M112.467 117.115H115.059C104.221 127.725 89.8003 133.415 74.6001 133.415C58.9341 133.415 44.3301 127.308 33.1758 116.42C32.0115 115.257 30.254 115.257 29.09 116.421C27.9257 117.585 27.9257 119.344 29.09 120.508C41.1375 132.556 57.4681 139.248 74.6001 139.248C91.5318 139.248 107.419 132.711 119.417 120.931V124.065V124.085L119.42 124.106C119.563 124.96 119.988 125.74 120.557 126.308C121.123 126.875 121.85 127.248 122.6 127.248C123.457 127.248 124.19 126.961 124.71 126.441C125.23 125.921 125.517 125.188 125.517 124.331V114.198C125.517 113.341 125.23 112.608 124.71 112.088C124.19 111.568 123.457 111.281 122.6 111.281H112.467C111.61 111.281 110.877 111.568 110.357 112.088C109.837 112.608 109.55 113.341 109.55 114.198C109.55 115.055 109.837 115.788 110.357 116.308C110.877 116.828 111.61 117.115 112.467 117.115Z" fill="#FFA900" stroke="#FFA900" stroke-width="0.5"/>
<path d="M75.1333 96.0531C86.738 96.0531 96.1833 86.6079 96.1833 75.0031C96.1833 63.3984 86.738 53.9531 75.1333 53.9531C63.5286 53.9531 54.0833 63.3984 54.0833 75.0031C54.0833 86.6079 63.5286 96.0531 75.1333 96.0531ZM75.1333 59.7865C83.5286 59.7865 90.35 66.6079 90.35 75.0031C90.35 83.3984 83.5286 90.2198 75.1333 90.2198C66.738 90.2198 59.9166 83.3984 59.9166 75.0031C59.9166 66.6079 66.738 59.7865 75.1333 59.7865Z" fill="#FFA900" stroke="#FFA900" stroke-width="0.5"/>
<path d="M38.9188 98.6047L38.9139 98.6129L38.9096 98.6215C38.3482 99.7443 38.3195 101.206 39.2231 102.11L48.5564 111.443C49.4277 112.315 50.8948 112.619 52.0756 111.739L58.6231 107.549C60.4007 108.31 62.1942 109.074 63.9909 109.6L65.8224 117.187C66.1158 118.643 67.2914 119.517 68.7332 119.517H82.0665C83.5084 119.517 84.6839 118.643 84.9773 117.187L86.8088 109.6C88.6058 109.074 90.4003 108.304 92.1922 107.292L98.7318 111.477L98.7429 111.484L98.7547 111.49C99.8775 112.052 101.34 112.08 102.243 111.177L111.577 101.843C112.448 100.972 112.752 99.505 111.872 98.3243L107.692 91.792C108.197 90.8875 108.581 89.9856 108.933 89.0914C109.057 88.7751 109.176 88.4615 109.295 88.1492C109.517 87.568 109.736 86.9917 109.981 86.4124L117.322 84.5773C118.777 84.2835 119.65 83.1082 119.65 81.6667V68.3333C119.65 66.8915 118.776 65.7159 117.32 65.4225L109.733 63.5911C109.206 61.7926 108.436 59.9967 107.423 58.2034L111.348 51.662L111.353 51.6537L111.357 51.6451C111.918 50.5223 111.947 49.0602 111.043 48.1566L101.71 38.8232C100.839 37.9519 99.3715 37.6481 98.1908 38.5277L91.6433 42.7181C89.8656 41.9563 88.0721 41.1928 86.2755 40.6669L84.444 33.0794C84.1506 31.6235 82.975 30.75 81.5332 30.75H68.1999C66.758 30.75 65.5825 31.6235 65.289 33.0794L63.4576 40.6669C61.6591 41.1934 59.8632 41.964 58.07 42.9772L51.5285 39.0523L51.5202 39.0474L51.5117 39.0431C50.3894 38.4819 48.9281 38.453 48.0244 39.3553C48.0239 39.3557 48.0235 39.3561 48.0231 39.3566L38.9591 48.1539L38.959 48.1539L38.9564 48.1566C38.0858 49.0272 37.7818 50.4925 38.6586 51.6728L42.5864 58.219L41.4367 60.9015L40.2836 63.5923L32.9407 65.6902C31.4879 65.9854 30.6165 67.1599 30.6165 68.6V81.9333C30.6165 83.3752 31.49 84.5507 32.9459 84.8442L40.5334 86.6756C41.0599 88.474 41.8305 90.27 42.8437 92.0632L38.9188 98.6047ZM43.4489 69.1118L43.4489 69.1121L43.4605 69.1092C44.6408 68.8141 45.2218 67.9247 45.5037 67.0791L45.5086 67.0643L45.5117 67.049C46.0378 64.4185 47.0904 62.0475 48.41 59.9355C48.9958 59.054 48.9965 57.8832 48.4121 57.0011L44.7796 50.7738L50.9044 44.649L56.8656 48.2776C57.7462 48.8621 58.915 48.863 59.7965 48.2804C62.183 46.9552 64.5564 45.9028 66.9207 45.3774L66.9208 45.3775L66.9272 45.3759C68.1075 45.0808 68.6885 44.1913 68.9704 43.3457L68.9744 43.3335L68.9772 43.3209L70.5337 36.3167H79.1993L80.7558 43.3209L80.7557 43.3209L80.7573 43.3273C81.0524 44.5076 81.9419 45.0886 82.7875 45.3705L82.7997 45.3746L82.8123 45.3774C85.1766 45.9028 87.55 46.9552 89.9365 48.2804C90.8191 48.8637 91.9897 48.8621 92.8706 48.2755C92.8711 48.2752 92.8715 48.275 92.8719 48.2747L98.8332 44.3869L104.955 50.5091L101.587 56.4692C101.004 57.3494 101.004 58.5163 101.586 59.3967C102.911 61.7832 103.964 64.1566 104.489 66.5209L104.489 66.5209L104.491 66.5273C104.786 67.7076 105.675 68.2886 106.521 68.5705L106.533 68.5746L106.546 68.5774L113.55 70.1339V78.8011L106.81 80.3564L106.806 80.3575C105.626 80.6525 105.045 81.542 104.763 82.3876L104.758 82.4024L104.755 82.4176C104.229 85.0482 103.176 87.4192 101.856 89.5313C101.27 90.4134 101.27 91.5852 101.856 92.4676L105.484 98.4288L99.362 104.551L93.4008 100.922C92.5202 100.338 91.3514 100.337 90.4698 100.92C88.0834 102.245 85.7099 103.297 83.3456 103.823L83.3456 103.823L83.3392 103.824C82.1589 104.119 81.5779 105.009 81.296 105.854L81.2919 105.867L81.2891 105.879L79.7326 112.883H71.0671L69.5106 105.879L69.5106 105.879L69.5091 105.873C69.214 104.692 68.3245 104.111 67.4789 103.829L67.4667 103.825L67.4541 103.823C65.0898 103.297 62.7163 102.245 60.3298 100.92C59.4474 100.336 58.277 100.338 57.3961 100.924C57.3955 100.925 57.395 100.925 57.3945 100.925L51.4332 104.813L45.3156 98.6955L48.9441 92.7343C49.5286 91.8537 49.5295 90.6849 48.947 89.8033C47.6218 87.4168 46.5693 85.0434 46.0439 82.6791L46.044 82.6791L46.0424 82.6727C45.7473 81.4924 44.8578 80.9114 44.0122 80.6295L44 80.6254L43.9874 80.6226L36.9832 79.0661V70.405L43.4489 69.1118Z" fill="#FFA900" stroke="#FFA900" stroke-width="0.5"/>
</g>
</svg>
