<svg width="86" height="86" viewBox="0 0 86 86" fill="none" xmlns="http://www.w3.org/2000/svg">
<path d="M84.5706 48.0305C82.4678 45.1793 78.4037 44.5142 75.5275 46.5374L64.8088 53.8049C64.0189 52.1407 62.3352 50.9791 60.3741 50.9791H42.8375C42.4616 50.9791 42.0946 50.8745 41.7755 50.6776L33.9701 45.844C31.4044 44.2535 28.452 43.4129 25.4305 43.4129H19.024V37.0225C19.024 36.2212 18.3732 35.5703 17.5718 35.5703H1.45222C0.650844 35.5703 0 36.2212 0 37.0225V73.4378C0 74.2391 0.650844 74.8918 1.45222 74.8918H17.572C18.3734 74.8918 19.0242 74.2393 19.0242 73.4378V67.4427H23.106C24.4659 67.4427 25.787 67.7176 27.0319 68.2566L42.7332 75.0797C44.7972 75.9734 46.9852 76.4309 49.237 76.4309C52.4483 76.4309 55.5637 75.4911 58.2483 73.718L82.9039 57.3962C84.4181 56.3962 85.4253 54.8606 85.7446 53.0732C86.0637 51.2859 85.6454 49.495 84.5706 48.0305ZM16.1198 71.984H2.90444V38.4748H16.1198V71.984V71.984ZM81.301 54.9741L56.6453 71.2925C52.8933 73.782 48.01 74.2077 43.8893 72.4132L28.188 65.5936C26.5761 64.8932 24.865 64.5385 23.1062 64.5385H19.0244V46.3176H25.4309C27.9097 46.3176 30.3354 47.0072 32.442 48.3123L40.2456 53.1459C41.0223 53.6282 41.9195 53.8835 42.8379 53.8835H60.3745C61.4862 53.8835 62.3906 54.7879 62.3906 56.2151C62.3906 57.3269 61.4862 58.2312 60.3745 58.2312H40.6693C37.9564 58.2312 35.7487 60.4389 35.7487 63.1518C35.7487 63.9532 36.3996 64.604 37.201 64.604C38.0023 64.604 38.6532 63.9532 38.6532 63.1518C38.6532 62.0401 39.5576 61.1357 40.6693 61.1357H60.3745C62.7234 61.1357 64.6868 59.4775 65.1736 57.068L77.1806 48.9275C78.7942 47.791 81.0603 48.1633 82.2305 49.752C82.8298 50.5695 83.064 51.5677 82.8865 52.5642C82.7088 53.5591 82.1451 54.4155 81.301 54.9741Z" fill="#D78E00"/>
<path d="M48.643 41.3893C52.7301 42.439 56.6736 42.9372 60.2359 42.9372C68.4776 42.9372 74.6765 40.2669 75.8892 35.5555L77.6268 28.782C78.5027 25.3652 76.648 21.5635 72.4066 18.074C68.4631 14.8326 62.8351 12.1605 56.5582 10.5504C43.0095 7.0698 31.0425 9.63554 29.3118 16.3841C29.3102 16.3898 29.3106 16.3955 29.3092 16.4013L27.5742 23.1575C25.8437 29.9062 35.0997 37.9138 48.643 41.3893ZM44.8732 11.884C48.1182 11.884 51.8311 12.3362 55.8348 13.3628C61.711 14.8716 66.9402 17.3417 70.5626 20.3188C73.8359 23.0105 75.3855 25.8316 74.8111 28.0587C73.6693 32.511 63.8636 35.0767 51.104 31.8035C38.3373 28.5267 30.9841 21.5599 32.1259 17.1076C32.9116 14.0508 37.7718 11.884 44.8732 11.884ZM30.3901 23.881L30.6604 22.8256C33.7126 27.6459 41.0195 32.2135 50.3807 34.6156C54.4678 35.6654 58.4113 36.1635 61.9735 36.1635C66.5999 36.1635 70.5394 35.2952 73.3577 33.7233L73.0733 34.8317C71.9315 39.2841 62.1276 41.8498 49.3662 38.5766C36.5996 35.3003 29.2464 28.3336 30.3901 23.881Z" fill="#D78E00"/>
<path d="M49.9939 26.4684L48.7756 29.0775L51.6477 30.4604L52.6529 27.659C54.8899 28.458 56.8279 28.686 58.3618 28.3263C59.849 27.9779 60.6415 27.0939 60.7637 25.7645C60.8808 24.4909 60.3832 23.3798 59.3368 22.4001C58.361 21.4865 56.8846 20.4395 54.9901 19.2935C54.2255 18.8241 53.7458 18.4582 53.5333 18.1883C53.3259 17.9246 53.2907 17.6636 53.4216 17.4059C53.5476 17.1583 53.7773 16.9995 54.1111 16.9244C54.4414 16.8503 54.8748 16.8961 55.4183 17.0625C55.9608 17.2286 56.3649 17.4606 56.6311 17.763C56.905 18.074 56.9777 18.4503 56.8388 18.8993L61.2779 20.3292L61.3092 20.3028C61.4134 19.4551 61.0267 18.662 60.198 17.9147C59.4214 17.2146 58.3629 16.6333 57.0274 16.1522L57.3633 15.1789L55.71 14.7188L55.2973 15.6293C53.9336 15.2947 52.7795 15.1755 51.7963 15.2668C50.7946 15.3599 50.0937 15.6663 49.6892 16.2084C49.2123 16.8484 49.2281 17.4982 49.7863 18.1516C50.3781 18.8447 51.5516 19.7667 53.399 20.9628C54.2018 21.5051 54.753 21.9703 55.0344 22.35C55.3238 22.741 55.3969 23.1797 55.2426 23.6715C55.105 24.1104 54.7954 24.3996 54.3129 24.5296C53.8245 24.6611 53.2009 24.5753 52.4568 24.2752C51.5851 23.9239 50.9727 23.4695 50.617 22.9236C50.2747 22.3984 50.2991 21.7941 50.6641 21.1252L46.4883 19.5654L46.4196 19.5938C45.5277 20.6813 45.3514 21.8125 46.0001 22.9747C46.7083 24.2445 48.0271 25.4232 49.9939 26.4684Z" fill="#D78E00"/>
</svg>
