<svg width="150" height="150" viewBox="0 0 150 150" fill="none" xmlns="http://www.w3.org/2000/svg">
<path d="M88.5 14.5C88.5 14.5 83.3195 19.1279 80 22.0932M80 22.0932C79 22.5678 86.5 30.161 86.5 30.161M80 22.0932C88.3415 22.9048 94 24.4661 101.5 28.0254C108.998 31.584 114.498 37.2773 116.998 40.5996C117 40.601 116.999 40.6005 117 40.6019C117.035 40.6475 123.505 49.1625 125.5 56.0254C127.5 62.9068 128 70.5 128 70.5" stroke="#FACF7A" stroke-width="7" stroke-linecap="round"/>
<path d="M60.5 136C60.5 136 65.6805 131.372 69 128.407M69 128.407C70 127.932 62.5 120.339 62.5 120.339M69 128.407C60.6585 127.595 55 126.034 47.5 122.475C40.0016 118.916 34.5023 113.223 32.0016 109.9C32.0005 109.899 32.0009 109.9 31.9999 109.898C31.9652 109.853 25.4946 101.337 23.5 94.4746C21.5 87.5932 21 80 21 80" stroke="#FACF7A" stroke-width="7" stroke-linecap="round"/>
<path fill-rule="evenodd" clip-rule="evenodd" d="M33.5 37.25C33.5 31.7396 37.8438 27.2535 43.513 26.223L43.5029 26.1137V26.1137L43.5 23.5C43.5 22.1193 44.6193 21 46 21C47.3807 21 48.5 22.1193 48.5 23.5V26L48.4895 26.2235C54.1575 27.2549 58.5 31.7404 58.5 37.25C58.5 38.6307 57.3807 39.75 56 39.75C54.7179 39.75 53.6612 38.7849 53.5168 37.5416L53.5 37.25C53.5 33.878 50.2109 31 46 31C41.7891 31 38.5 33.878 38.5 37.25C38.5 40.4971 41.55 43.2861 45.536 43.4883L46 43.5C52.8348 43.5 58.5 48.457 58.5 54.75C58.5 60.2555 54.1639 64.7386 48.5019 65.7743L48.5 68.5C48.5 69.8807 47.3807 71 46 71C44.6193 71 43.5 69.8807 43.5 68.5L43.5006 65.7747C37.8374 64.7399 33.5 60.2564 33.5 54.75C33.5 53.3693 34.6193 52.25 36 52.25C37.3807 52.25 38.5 53.3693 38.5 54.75C38.5 58.122 41.7891 61 46 61C50.2109 61 53.5 58.122 53.5 54.75C53.5 51.5029 50.45 48.7139 46.464 48.5117L46 48.5C39.1652 48.5 33.5 43.543 33.5 37.25Z" fill="#FACF7A"/>
<path d="M81 46C81 65.33 65.33 81 46 81C26.67 81 11 65.33 11 46C11 26.67 26.67 11 46 11C65.33 11 81 26.67 81 46ZM17.1328 46C17.1328 61.9429 30.0571 74.8672 46 74.8672C61.9429 74.8672 74.8672 61.9429 74.8672 46C74.8672 30.0571 61.9429 17.1328 46 17.1328C30.0571 17.1328 17.1328 30.0571 17.1328 46Z" fill="#FACF7A"/>
<path d="M108.27 83.167C111.555 83.167 114.734 83.934 117.607 85.386C118.633 85.9051 119.045 87.1584 118.526 88.1852C118.007 89.212 116.754 89.6236 115.727 89.1045C113.434 87.9455 110.898 87.3337 108.27 87.3337C101.303 87.3337 95.3362 91.6422 92.8731 97.7512L104.167 97.7503C105.317 97.7503 106.25 98.6831 106.25 99.8337C106.25 100.984 105.317 101.917 104.167 101.917L91.7949 101.919C91.7103 102.601 91.6667 103.295 91.6667 104C91.6667 104.706 91.7104 105.401 91.7952 106.084L104.167 106.084C105.317 106.084 106.25 107.016 106.25 108.167C106.25 109.318 105.317 110.25 104.167 110.25L92.874 110.251C95.3375 116.359 101.303 120.667 108.27 120.667C110.897 120.667 113.433 120.055 115.725 118.897C116.752 118.378 118.005 118.79 118.524 119.817C119.043 120.844 118.631 122.097 117.604 122.616C114.733 124.067 111.554 124.834 108.27 124.834C98.9694 124.834 91.0984 118.703 88.4514 110.252L83.3333 110.25C82.1827 110.25 81.25 109.318 81.25 108.167C81.25 107.016 82.1827 106.084 83.3333 106.084L87.6028 106.086C87.5348 105.4 87.5 104.704 87.5 104C87.5 103.297 87.5347 102.602 87.6026 101.917L83.3333 101.917C82.1827 101.917 81.25 100.984 81.25 99.8337C81.25 98.6831 82.1827 97.7503 83.3333 97.7503L88.4507 97.7508C91.0971 89.299 98.9687 83.167 108.27 83.167Z" fill="#FACF7A"/>
<path d="M139 104C139 123.33 123.33 139 104 139C84.67 139 69 123.33 69 104C69 84.67 84.67 69 104 69C123.33 69 139 84.67 139 104ZM75.1328 104C75.1328 119.943 88.0571 132.867 104 132.867C119.943 132.867 132.867 119.943 132.867 104C132.867 88.0571 119.943 75.1328 104 75.1328C88.0571 75.1328 75.1328 88.0571 75.1328 104Z" fill="#FACF7A"/>
</svg>
