<svg width="24" height="24" viewBox="0 0 24 24" fill="none" xmlns="http://www.w3.org/2000/svg">
<path d="M8.38443 2.47717C8.90952 2.31885 9.47301 2.34515 9.98107 2.5517C10.4891 2.75825 10.9111 3.13257 11.1768 3.61237L11.2668 3.79117L12.06 5.55637C12.3011 6.09215 12.3794 6.68699 12.2851 7.2669C12.1908 7.8468 11.9281 8.38619 11.5296 8.81797L11.3712 8.97637L10.1184 10.144C9.89283 10.3576 10.062 11.1844 10.8792 12.598C11.6124 13.87 12.2112 14.464 12.504 14.4964H12.5556L12.6192 14.4844L15.0792 13.732C15.4098 13.6306 15.7627 13.6266 16.0955 13.7204C16.4283 13.8143 16.7271 14.002 16.956 14.2612L17.0664 14.3992L18.6936 16.6552C19.0129 17.0972 19.1722 17.6348 19.1451 18.1795C19.1181 18.7241 18.9064 19.2433 18.5448 19.6516L18.3984 19.8028L17.7468 20.4196C17.1628 20.9727 16.4322 21.3464 15.6419 21.4964C14.8516 21.6464 14.0349 21.5663 13.2888 21.2656C10.9668 20.3296 8.85723 18.1912 6.94083 14.872C5.02083 11.5444 4.22283 8.64397 4.57923 6.15997C4.68718 5.40896 4.99656 4.70121 5.47449 4.11192C5.95243 3.52264 6.58107 3.07383 7.29363 2.81317L7.52523 2.73637L8.38443 2.47717Z" fill="#FFA900"/>
</svg>
