<svg width="82" height="82" viewBox="0 0 82 82" fill="none" xmlns="http://www.w3.org/2000/svg">
<path d="M34.4697 55.8339L34.4697 55.8359C34.4721 56.1321 34.5765 56.4184 34.7653 56.6466C34.7656 56.6469 34.7658 56.6471 34.766 56.6474L39.8292 62.8727C39.8294 62.8729 39.8296 62.8731 39.8298 62.8734C39.9504 63.0235 40.1031 63.1447 40.2767 63.228C40.4506 63.3114 40.641 63.3547 40.8339 63.3547C41.0268 63.3547 41.2172 63.3114 41.3911 63.228C41.5647 63.1447 41.7174 63.0235 41.8381 62.8734C41.8382 62.8731 41.8384 62.8729 41.8386 62.8727L46.9018 56.6474C46.902 56.6471 46.9023 56.6469 46.9025 56.6466C47.0913 56.4184 47.1957 56.1321 47.1981 55.8359V55.8339V32.3945C47.1981 31.2269 46.7343 30.1072 45.9087 29.2816C45.0831 28.456 43.9634 27.9922 42.7958 27.9922H38.872C37.7044 27.9922 36.5847 28.456 35.7591 29.2816C34.9335 30.1072 34.4697 31.2269 34.4697 32.3945L34.4697 55.8339ZM31.2837 10.75H31.2711L31.2585 10.7513C31.1581 10.7615 31.0592 10.7819 30.9631 10.8123H30.8997H30.8481L30.8008 10.8327C30.6574 10.8944 30.5265 10.9817 30.4143 11.0903L30.4142 11.0901L30.4063 11.0984L17.0569 25.2576L17.0512 25.2635L17.046 25.2699C16.9561 25.3787 16.8813 25.4992 16.8237 25.628L16.8019 25.6767V25.7301V25.7948C16.7755 25.8819 16.7584 25.9716 16.7509 26.0624L16.75 26.0727V26.083V26.0831V26.0831V26.0831V26.0831V26.0831V26.0831V26.0831V26.0831V26.0831V26.0831V26.0831V26.0831V26.0832V26.0832V26.0832V26.0832V26.0832V26.0832V26.0832V26.0832V26.0832V26.0832V26.0833V26.0833V26.0833V26.0833V26.0833V26.0833V26.0833V26.0833V26.0833V26.0833V26.0833V26.0834V26.0834V26.0834V26.0834V26.0834V26.0834V26.0834V26.0834V26.0835V26.0835V26.0835V26.0835V26.0835V26.0835V26.0835V26.0835V26.0836V26.0836V26.0836V26.0836V26.0836V26.0836V26.0837V26.0837V26.0837V26.0837V26.0837V26.0837V26.0838V26.0838V26.0838V26.0838V26.0838V26.0839V26.0839V26.0839V26.0839V26.0839V26.084V26.084V26.084V26.084V26.0841V26.0841V26.0841V26.0841V26.0842V26.0842V26.0842V26.0842V26.0843V26.0843V26.0843V26.0843V26.0844V26.0844V26.0844V26.0845V26.0845V26.0845V26.0845V26.0846V26.0846V26.0846V26.0847V26.0847V26.0847V26.0848V26.0848V26.0848V26.0849V26.0849V26.0849V26.085V26.085V26.0851V26.0851V26.0851V26.0852V26.0852V26.0852V26.0853V26.0853V26.0854V26.0854V26.0854V26.0855V26.0855V26.0856V26.0856V26.0857V26.0857V26.0857V26.0858V26.0858V26.0859V26.0859V26.086V26.086V26.0861V26.0861V26.0862V26.0862V26.0863V26.0863V26.0864V26.0864V26.0865V26.0865V26.0866V26.0866V26.0867V26.0868V26.0868V26.0869V26.0869V26.087V26.087V26.0871V26.0872V26.0872V26.0873V26.0873V26.0874V26.0875V26.0875V26.0876V26.0877V26.0877V26.0878V26.0879V26.0879V26.088V26.0881V26.0881V26.0882V26.0883V26.0883V26.0884V26.0885V26.0885V26.0886V26.0887V26.0888V26.0888V26.0889V26.089V26.0891V26.0891V26.0892V26.0893V26.0894V26.0895V26.0895V26.0896V26.0897V26.0898V26.0899V26.09V26.09V26.0901V26.0902V26.0903V26.0904V26.0905V26.0906V26.0906V26.0907V26.0908V26.0909V26.091V26.0911V26.0912V26.0913V26.0914V26.0915V26.0916V26.0917V26.0918V26.0919V26.092V26.0921V26.0922V26.0923V26.0924V26.0925V26.0926V26.0927V26.0928V26.0929V26.093V26.0931V26.0932V26.0933V26.0935V26.0936V26.0937V26.0938V26.0939V26.094V26.0941V26.0942V26.0944V26.0945V26.0946V26.0947V26.0948V26.095V26.0951V26.0952V26.0953V26.0954V26.0956V26.0957V26.0958V26.096V26.0961V26.0962V26.0963V26.0965V26.0966V26.0967V26.0969V26.097V26.0971V26.0973V26.0974V26.0975V26.0977V26.0978V26.098V26.0981V26.0982V26.0984V26.0985V26.0987V26.0988V26.099V26.0991V26.0993V26.0994V26.0996V26.0997V26.0999V26.1V26.1002V26.1003V26.1005V26.1006V26.1008V26.101V26.1011V26.1013V26.1014V26.1016V26.1018V26.1019V26.1021V26.1023V26.1024V26.1026V26.1028V26.1029V26.1031V26.1033V26.1035V26.1036V26.1038V26.104V26.1042V26.1043V26.1045V26.1047V26.1049V26.1051V26.1052V26.1054V26.1056V26.1058V26.106V26.1062V26.1064V26.1065V26.1067V26.1069V26.1071V26.1073V26.1075V26.1077V26.1079V26.1081V26.1083V26.1085V26.1087V26.1089V26.1091V26.1093V26.1095V26.1097V26.1099V26.1101V26.1104V26.1106V26.1108V26.111V26.1112V26.1114V26.1116V26.1119V26.1121V26.1123V26.1125V26.1127V26.113V26.1132V26.1134V26.1136V26.1139V26.1141V26.1143V26.1146V26.1148V26.115V26.1153V26.1155V26.1157V26.116V26.1162V26.1165V26.1167V26.1169V26.1172V26.1174V26.1177V26.1179V26.1182V26.1184V26.1187V26.1189V26.1192V26.1194V26.1197V26.1199V26.1202V26.1205V26.1207V26.121V26.1212V26.1215V26.1218V26.122V26.1223V26.1226V26.1228V26.1231V26.1234V26.1237V26.1239V26.1242V26.1245V26.1248V26.125V26.1253V26.1256V26.1259V26.1262V26.1265V26.1268V26.127V26.1273V26.1276V26.1279V26.1282V26.1285V26.1288V26.1291V26.1294V26.1297V26.13V26.1303V26.1306V26.1309V26.1312V26.1315V26.1318V26.1322V26.1325V26.1328V26.1331V26.1334V26.1337V26.134V26.1344V26.1347V26.135V26.1353V26.1357V26.136V26.1363V26.1366V26.137V26.1373V26.1376V26.138V26.1383V26.1386V26.139V26.1393V26.1397V26.14V26.1404V26.1407V26.1411V26.1414V26.1417V26.1421V26.1425V26.1428V26.1432V26.1435V26.1439V26.1442V26.1446V26.145V26.1453V67.8858C16.75 68.778 17.1044 69.6337 17.7353 70.2646C18.3663 70.8956 19.2219 71.25 20.1142 71.25H61.5951C62.4874 71.25 63.3431 70.8956 63.974 70.2646C64.6049 69.6337 64.9593 68.778 64.9593 67.8858V14.1142C64.9593 13.2219 64.6049 12.3663 63.974 11.7353C63.3431 11.1044 62.4874 10.75 61.5951 10.75H31.2837ZM38.872 30.5683H42.7958C43.2802 30.5683 43.7446 30.7607 44.0871 31.1032C44.4296 31.4457 44.622 31.9101 44.622 32.3945V35.1445H37.0458V32.3945C37.0458 31.9101 37.2382 31.4457 37.5807 31.1032C37.9232 30.7607 38.3877 30.5683 38.872 30.5683ZM44.622 55.3713L40.8339 60.0261L37.0458 55.3713V37.7206H44.622V55.3713ZM20.9861 24.8469L30.058 15.271V24.0588C30.058 24.2678 29.9749 24.4683 29.8271 24.6161C29.6793 24.7639 29.4789 24.8469 29.2699 24.8469H20.9861ZM62.3832 67.8858C62.3832 68.0948 62.3002 68.2953 62.1524 68.4431C62.0046 68.5908 61.8042 68.6739 61.5951 68.6739H20.0727C19.8637 68.6739 19.6632 68.5908 19.5154 68.4431C19.3676 68.2953 19.2846 68.0948 19.2846 67.8858V27.423H29.2699C30.1621 27.423 31.0178 27.0686 31.6487 26.4377C32.2796 25.8068 32.6341 24.9511 32.6341 24.0588V13.3261H61.5951C61.8042 13.3261 62.0046 13.4092 62.1524 13.5569C62.3002 13.7047 62.3832 13.9052 62.3832 14.1142V67.8858Z" fill="#FFA900" stroke="#FFA900" stroke-width="0.5"/>
</svg>
