<svg width="50" height="50" viewBox="0 0 50 50" fill="none" xmlns="http://www.w3.org/2000/svg">
<path d="M48.2148 14.5909L48.1556 14.203L48.0941 14.2169C47.6736 12.2984 46.7049 10.5352 45.3001 9.13148C43.8953 7.72772 42.1118 6.7407 40.156 6.28463C38.2001 5.82856 36.1519 5.92207 34.2483 6.55435C32.3447 7.18663 30.6635 8.33183 29.3992 9.85745C28.1349 11.3831 27.3392 13.2268 27.1042 15.1752C26.8692 17.1236 27.2044 19.0971 28.0712 20.8674C28.9379 22.6377 30.3007 24.1324 32.0019 25.1785C33.703 26.2246 35.673 26.7795 37.6839 26.7788C38.2117 26.7788 38.7181 26.7003 39.2222 26.6287C39.0589 27.1644 38.8908 27.7092 38.6211 28.1987C38.3513 28.9098 37.9301 29.5262 37.5112 30.1473C37.161 30.8191 36.5433 31.274 36.0889 31.8488C35.6133 32.4076 34.9649 32.7793 34.4513 33.2433C33.9473 33.7282 33.287 33.9706 32.7617 34.3123C32.2127 34.6193 31.7346 34.9587 31.2235 35.1203L29.9479 35.6329L28.8262 36.0877L29.9716 40.5644L31.3844 40.2319C31.8364 40.1211 32.3878 39.9918 33.0149 39.8371C33.6562 39.7217 34.3401 39.4054 35.1021 39.1168C35.8523 38.7866 36.7255 38.5673 37.5349 38.0386C38.3489 37.5353 39.2884 37.1151 40.1167 36.4409C40.9189 35.746 41.8868 35.1434 42.6015 34.2615C43.3824 33.4349 44.1539 32.5669 44.7526 31.5787C45.446 30.6367 45.9169 29.6024 46.4139 28.5796C46.8635 27.5569 47.2256 26.511 47.5214 25.4951C48.0822 23.4588 48.3331 21.5241 48.4301 19.8687C48.5106 18.211 48.4632 16.8327 48.3638 15.8353C48.3306 15.4188 48.2809 15.0037 48.2148 14.5909V14.5909ZM22.1835 14.5909L22.1244 14.203L22.0628 14.2169C21.6423 12.2984 20.6736 10.5352 19.2688 9.13148C17.864 7.72772 16.0806 6.7407 14.1247 6.28463C12.1689 5.82856 10.1207 5.92207 8.21709 6.55435C6.31347 7.18663 4.63226 8.33183 3.36798 9.85745C2.10369 11.3831 1.308 13.2268 1.07298 15.1752C0.837966 17.1236 1.17322 19.0971 2.03995 20.8674C2.90669 22.6377 4.26948 24.1324 5.97064 25.1785C7.67181 26.2246 9.64181 26.7795 11.6527 26.7788C12.1804 26.7788 12.6869 26.7003 13.1909 26.6287C13.0276 27.1644 12.8596 27.7092 12.5898 28.1987C12.3201 28.9098 11.8988 29.5262 11.48 30.1473C11.1297 30.8191 10.5121 31.274 10.0577 31.8488C9.58206 32.4076 8.93364 32.7793 8.42012 33.2433C7.91606 33.7282 7.25581 33.9706 6.73046 34.3123C6.18143 34.6193 5.70341 34.9587 5.19225 35.1203L3.91672 35.6329C3.20441 35.9169 2.79738 36.0831 2.79738 36.0831L3.94275 40.5598L5.35553 40.2273C5.80753 40.1165 6.35892 39.9872 6.98604 39.8325C7.62735 39.7171 8.31126 39.4008 9.07327 39.1122C9.82344 38.782 10.6967 38.5627 11.506 38.034C12.3201 37.5307 13.2596 37.1105 14.0878 36.4363C14.8901 35.7414 15.8579 35.1388 16.5726 34.2569C17.3536 33.4303 18.125 32.5622 18.7237 31.5741C19.4171 30.6321 19.8881 29.5978 20.385 28.575C20.8346 27.5522 21.1967 26.5064 21.4925 25.4905C22.0534 23.4542 22.3042 21.5195 22.4013 19.8641C22.4817 18.2064 22.4344 16.8281 22.335 15.8307C22.2997 15.4158 22.2491 15.0023 22.1835 14.5909V14.5909Z" fill="#FFA900"/>
<path d="M48.8761 17.0284L48.817 16.6405L48.7554 16.6544C48.3349 14.7359 47.3662 12.9727 45.9614 11.569C44.5566 10.1652 42.7732 9.1782 40.8173 8.72213C38.8615 8.26606 36.8133 8.35957 34.9097 8.99185C33.0061 9.62413 31.3249 10.7693 30.0606 12.295C28.7963 13.8206 28.0006 15.6643 27.7656 17.6127C27.5306 19.5611 27.8658 21.5346 28.7326 23.3049C29.5993 25.0752 30.9621 26.5699 32.6632 27.616C34.3644 28.6621 36.3344 29.217 38.3453 29.2163C38.873 29.2163 39.3795 29.1378 39.8835 29.0662C39.7202 29.6019 39.5522 30.1467 39.2824 30.6362C39.0127 31.3473 38.5914 31.9637 38.1726 32.5848C37.8223 33.2566 37.2047 33.7115 36.7503 34.2863C36.2747 34.8451 35.6262 35.2168 35.1127 35.6808C34.6087 36.1657 33.9484 36.4081 33.4231 36.7498C32.874 37.0568 32.396 37.3962 31.8848 37.5578L30.6093 38.0704L29.4876 38.5252L30.633 43.0019L32.0458 42.6694C32.4978 42.5586 33.0492 42.4293 33.6763 42.2746C34.3176 42.1592 35.0015 41.8429 35.7635 41.5543C36.5137 41.2241 37.3869 41.0048 38.1962 40.4761C39.0103 39.9728 39.9498 39.5526 40.7781 38.8784C41.5803 38.1835 42.5482 37.5809 43.2629 36.699C44.0438 35.8724 44.8153 35.0044 45.414 34.0162C46.1074 33.0742 46.5783 32.0399 47.0752 31.0171C47.5249 29.9944 47.8869 28.9485 48.1828 27.9326C48.7436 25.8963 48.9945 23.9616 49.0915 22.3062C49.1719 20.6485 49.1246 19.2702 49.0252 18.2728C48.992 17.8563 48.9422 17.4412 48.8761 17.0284V17.0284ZM22.8449 17.0284L22.7858 16.6405L22.7242 16.6544C22.3037 14.7359 21.335 12.9727 19.9302 11.569C18.5254 10.1652 16.7419 9.1782 14.7861 8.72213C12.8303 8.26606 10.7821 8.35957 8.87847 8.99185C6.97485 9.62413 5.29364 10.7693 4.02935 12.295C2.76507 13.8206 1.96938 15.6643 1.73436 17.6127C1.49934 19.5611 1.8346 21.5346 2.70133 23.3049C3.56806 25.0752 4.93085 26.5699 6.63202 27.616C8.33318 28.6621 10.3032 29.217 12.3141 29.2163C12.8418 29.2163 13.3482 29.1378 13.8523 29.0662C13.689 29.6019 13.521 30.1467 13.2512 30.6362C12.9814 31.3473 12.5602 31.9637 12.1413 32.5848C11.7911 33.2566 11.1735 33.7115 10.7191 34.2863C10.2434 34.8451 9.59502 35.2168 9.0815 35.6808C8.57744 36.1657 7.91719 36.4081 7.39183 36.7498C6.84281 37.0568 6.36478 37.3962 5.85362 37.5578L4.57809 38.0704C3.86579 38.3544 3.45875 38.5206 3.45875 38.5206L4.60413 42.9973L6.01691 42.6648C6.46891 42.554 7.0203 42.4247 7.64741 42.27C8.28873 42.1546 8.97264 41.8383 9.73464 41.5497C10.4848 41.2195 11.358 41.0002 12.1674 40.4715C12.9814 39.9682 13.9209 39.548 14.7492 38.8738C15.5514 38.1789 16.5193 37.5763 17.234 36.6944C18.0149 35.8678 18.7864 34.9997 19.3851 34.0116C20.0785 33.0696 20.5494 32.0353 21.0464 31.0125C21.496 29.9897 21.8581 28.9439 22.1539 27.928C22.7148 25.8917 22.9656 23.957 23.0626 22.3016C23.1431 20.6439 23.0958 19.2656 22.9964 18.2682C22.961 17.8533 22.9105 17.4398 22.8449 17.0284V17.0284Z" fill="#FFA900" fill-opacity="0.17"/>
</svg>
