<svg width="82" height="82" viewBox="0 0 82 82" fill="none" xmlns="http://www.w3.org/2000/svg">
<path d="M55.2498 28.7735L46.6502 27.5239L42.8048 19.7316C42.8048 19.7316 42.8048 19.7316 42.8048 19.7315C42.678 19.4745 42.4818 19.258 42.2383 19.1066C41.9949 18.9552 41.7139 18.875 41.4273 18.875C41.1406 18.875 40.8596 18.9552 40.6162 19.1066C40.3728 19.258 40.1766 19.4744 40.0498 19.7315C40.0498 19.7315 40.0497 19.7316 40.0497 19.7316L36.2031 27.5239L27.6035 28.7735C27.3198 28.8146 27.0533 28.9342 26.8341 29.1188C26.6149 29.3034 26.4517 29.5457 26.3631 29.8183C26.2744 30.0908 26.2638 30.3827 26.3324 30.661C26.401 30.9393 26.5461 31.1928 26.7513 31.3929L26.7514 31.3929L32.975 37.4593L31.5057 46.025L31.5057 46.0251C31.4574 46.3076 31.4891 46.598 31.5972 46.8634C31.7053 47.1288 31.8855 47.3587 32.1174 47.5271C32.3492 47.6954 32.6236 47.7956 32.9094 47.8162C33.1953 47.8369 33.4812 47.7771 33.7348 47.6438L33.6185 47.4225L33.7348 47.6438L41.427 43.6004L49.1191 47.6438C49.3728 47.7771 49.6587 47.8369 49.9445 47.8162C50.2304 47.7956 50.5047 47.6954 50.7366 47.5271C50.9685 47.3587 51.1487 47.1288 51.2568 46.8634C51.3648 46.598 51.3965 46.3076 51.3483 46.0251L51.3482 46.025L49.879 37.4593L56.1019 31.3929L56.1019 31.3929C56.3071 31.1928 56.4522 30.9393 56.5208 30.661C56.5894 30.3827 56.5788 30.0908 56.4901 29.8183C56.4015 29.5457 56.2383 29.3034 56.0191 29.1188C55.8 28.9342 55.5335 28.8146 55.25 28.7735C55.2499 28.7735 55.2498 28.7735 55.2498 28.7735ZM47.1556 35.824L47.1555 35.8242C46.9774 35.998 46.8442 36.2125 46.7673 36.4492C46.6903 36.6858 46.672 36.9376 46.7138 37.183L46.7139 37.1832L47.7937 43.4764L42.1425 40.5059C42.1425 40.5059 42.1424 40.5058 42.1423 40.5058C41.922 40.389 41.6763 40.3279 41.4269 40.3279C41.1775 40.3279 40.9319 40.389 40.7115 40.5058C40.7115 40.5058 40.7114 40.5059 40.7114 40.5059L35.0601 43.4764L36.1394 37.1832L36.1395 37.1829C36.1813 36.9376 36.1629 36.6858 36.086 36.4491C36.0091 36.2124 35.8759 35.998 35.6978 35.8241L35.6977 35.824L31.1249 31.3659L37.4436 30.4477C37.6901 30.4121 37.9242 30.3169 38.1258 30.1705C38.3273 30.0241 38.4902 29.8309 38.6004 29.6075L41.4269 23.8823L44.2523 29.6076L44.2523 29.6076C44.3626 29.831 44.5256 30.0242 44.7273 30.1706C44.9289 30.317 45.1631 30.4121 45.4097 30.4477L51.7283 31.3659L47.1556 35.824Z" fill="#FFA900" stroke="#FFA900" stroke-width="0.5"/>
<path d="M66.6953 10.75H66.695L16.1841 10.75L16.1838 10.75C13.9478 10.7525 11.8041 11.6419 10.223 13.223C8.64186 14.8041 7.7525 16.9478 7.75 19.1838V19.184L7.75 49.2512L7.75 49.2515C7.7525 51.4875 8.64186 53.6312 10.223 55.2123C11.8041 56.7934 13.9478 57.6828 16.1838 57.6853H16.1841H30.3214V69.7139C30.3214 70.0176 30.4115 70.3147 30.5802 70.5673C30.749 70.8199 30.9889 71.0168 31.2697 71.1331C31.5504 71.2494 31.8592 71.2798 32.1572 71.2205C32.4552 71.1612 32.7289 71.0148 32.9437 70.7999L46.0571 57.6853H66.695H66.6953C68.9313 57.6828 71.075 56.7934 72.6561 55.2123C74.2372 53.6312 75.1265 51.4875 75.129 49.2515V49.2512V19.184V19.1838C75.1265 16.9478 74.2372 14.8041 72.6561 13.223C71.075 11.6419 68.9313 10.7525 66.6953 10.75ZM72.0568 49.2509C72.0552 50.6726 71.4898 52.0355 70.4845 53.0408C69.4793 54.046 68.1164 54.6114 66.6947 54.613H45.421C45.0136 54.6131 44.6229 54.775 44.3349 55.063L33.3937 66.0054V56.1492C33.3937 56.1492 33.3937 56.1492 33.3937 56.1491C33.3937 55.9474 33.354 55.7476 33.2769 55.5613C33.1997 55.3749 33.0865 55.2055 32.9439 55.0628C32.8012 54.9202 32.6318 54.807 32.4454 54.7298C32.259 54.6527 32.0593 54.613 31.8576 54.613C31.8575 54.613 31.8575 54.613 31.8575 54.613H16.1843C14.7627 54.6114 13.3998 54.046 12.3945 53.0408C11.3893 52.0356 10.8239 50.6727 10.8223 49.2512C10.8223 49.2511 10.8223 49.251 10.8223 49.2509V19.1843C10.8223 19.1843 10.8223 19.1842 10.8223 19.1841C10.8239 17.7626 11.3893 16.3997 12.3945 15.3945C13.3997 14.3893 14.7626 13.8239 16.1841 13.8223C16.1842 13.8223 16.1843 13.8223 16.1843 13.8223H66.6947C66.6948 13.8223 66.6949 13.8223 66.6949 13.8223C68.1165 13.8239 69.4793 14.3893 70.4845 15.3945C71.4898 16.3998 72.0552 17.7627 72.0568 19.1843V49.2509Z" fill="#FFA900" stroke="#FFA900" stroke-width="0.5"/>
</svg>
