<svg width="86" height="86" viewBox="0 0 86 86" fill="none" xmlns="http://www.w3.org/2000/svg">
<path d="M22.4829 36.4583H26.9156L26.8855 36.163C26.8497 35.7765 26.8261 35.4006 26.8155 35.0345L22.4829 36.4583V36.4583ZM64.2668 54.0156C65.6076 54.0156 66.6955 55.1034 66.6955 56.4443C66.6955 57.7851 65.6076 58.8721 64.2668 58.8721C62.9259 58.8721 61.8389 57.7851 61.8389 56.4443C61.8389 55.1034 62.9259 54.0156 64.2668 54.0156ZM69.0281 51.7578H59.5071V61.1307H69.0281V51.7578ZM58.4738 49.6911H69.0281V43.6418C69.0281 40.8299 66.7239 38.5249 63.912 38.5249C50.0023 38.5249 36.0933 38.5249 22.1835 38.5249C19.3708 38.5249 17.0666 40.8291 17.0666 43.6418V69.2467C17.0666 72.0586 19.3724 74.362 22.1835 74.362H63.912C66.7231 74.362 69.0281 72.0578 69.0281 69.2467V63.1974H58.4738C57.9034 63.1974 57.4404 62.7344 57.4404 62.1641V50.7245C57.4404 50.1541 57.9034 49.6911 58.4738 49.6911V49.6911ZM71.0947 69.2467C71.0947 73.1993 67.8638 76.4286 63.912 76.4286H22.1835C18.2309 76.4286 15 73.2001 15 69.2467V43.6418C15 39.9 17.7143 35.8538 21.2657 34.6879L26.9074 32.8336C27.6788 25.7615 32.9852 19.9921 39.9401 18.6049C42.586 12.7622 48.4059 9 54.8238 9C63.8461 9 71.1606 16.3145 71.1606 25.3368C71.1606 29.6832 69.439 33.8254 66.3676 36.8928C69.1876 37.9228 71.0947 40.6249 71.0947 43.6418C71.0947 52.1768 71.0947 60.7117 71.0947 69.2467V69.2467ZM42.1133 23.3711C42.1133 22.0123 44.1799 22.0123 44.1799 23.3711V24.7128C51.4448 25.6647 51.7027 34.6049 44.1799 35.5918V36.4583H57.3021C57.3713 35.8375 57.416 35.2541 57.416 34.626C57.416 26.7395 51.0331 20.3558 43.1466 20.3558C35.2642 20.3558 28.8764 26.7412 28.8764 34.626C28.8764 35.1044 28.8968 35.5527 28.9358 35.9693L28.9903 36.4583H37.3316C38.3877 34.849 40.2371 33.9035 42.1133 33.6594V26.8005C40.4552 27.091 38.5879 28.2822 38.5879 30.1535C38.5879 31.5123 36.5213 31.5123 36.5213 30.1535C36.5213 27.1024 39.3169 25.0797 42.1133 24.7128V23.3711ZM44.1799 26.8005V33.504C48.9608 32.666 48.7265 27.5987 44.1799 26.8005V26.8005ZM42.1133 36.4583V35.7488C41.4535 35.8644 40.8018 36.0979 40.2355 36.4583H42.1133ZM63.768 36.4583C67.1486 33.7383 69.094 29.6767 69.094 25.3368C69.094 17.456 62.7046 11.0666 54.8238 11.0666C49.663 11.0666 44.9399 13.8248 42.3989 18.3063C42.6471 18.2949 42.896 18.2892 43.1466 18.2892C52.1633 18.2892 59.4826 25.6102 59.4826 34.626C59.4826 35.2444 59.4387 35.8465 59.3761 36.4583H63.768V36.4583Z" fill="#D78E00"/>
</svg>
