<svg width="86" height="86" viewBox="0 0 86 86" fill="none" xmlns="http://www.w3.org/2000/svg">
<g clip-path="url(#clip0_180_434)">
<path d="M71 25C71 33.8366 63.8366 41 55 41C46.1634 41 39 33.8366 39 25C39 16.1634 46.1634 9 55 9C63.8366 9 71 16.1634 71 25ZM41.8036 25C41.8036 32.2882 47.7118 38.1964 55 38.1964C62.2882 38.1964 68.1964 32.2882 68.1964 25C68.1964 17.7118 62.2882 11.8036 55 11.8036C47.7118 11.8036 41.8036 17.7118 41.8036 25Z" fill="#D78E00"/>
<rect width="19" height="28" rx="6" transform="matrix(-1 0 0 1 53 20)" fill="white"/>
<path fill-rule="evenodd" clip-rule="evenodd" d="M49.25 29.625C49.25 26.8698 47.0781 24.6268 44.2435 24.1115L44.2485 24.0568V24.0568L44.25 22.75C44.25 22.0596 43.6904 21.5 43 21.5C42.3096 21.5 41.75 22.0596 41.75 22.75V24L41.7553 24.1117C38.9212 24.6274 36.75 26.8702 36.75 29.625C36.75 30.3154 37.3096 30.875 38 30.875C38.641 30.875 39.1694 30.3925 39.2416 29.7708L39.25 29.625C39.25 27.939 40.8946 26.5 43 26.5C45.1054 26.5 46.75 27.939 46.75 29.625C46.75 31.2486 45.225 32.6431 43.232 32.7441L43 32.75C39.5826 32.75 36.75 35.2285 36.75 38.375C36.75 41.1278 38.9181 43.3693 41.749 43.8871L41.75 45.25C41.75 45.9404 42.3096 46.5 43 46.5C43.6904 46.5 44.25 45.9404 44.25 45.25L44.2497 43.8874C47.0813 43.3699 49.25 41.1282 49.25 38.375C49.25 37.6846 48.6904 37.125 48 37.125C47.3096 37.125 46.75 37.6846 46.75 38.375C46.75 40.061 45.1054 41.5 43 41.5C40.8946 41.5 39.25 40.061 39.25 38.375C39.25 36.7514 40.775 35.3569 42.768 35.2559L43 35.25C46.4174 35.25 49.25 32.7715 49.25 29.625Z" fill="#D78E00"/>
<path d="M59 34C59 42.8366 51.8366 50 43 50C34.1634 50 27 42.8366 27 34C27 25.1634 34.1634 18 43 18C51.8366 18 59 25.1634 59 34ZM29.8036 34C29.8036 41.2882 35.7118 47.1964 43 47.1964C50.2882 47.1964 56.1964 41.2882 56.1964 34C56.1964 26.7118 50.2882 20.8036 43 20.8036C35.7118 20.8036 29.8036 26.7118 29.8036 34Z" fill="#D78E00"/>
</g>
<path d="M26.9038 32C22.6456 34.2805 16 35.1852 16 37.8395M16 37.8395V69C16 72.3137 18.6863 75 22 75H64C67.3137 75 70 72.3137 70 69V43.2457C70 39.903 67.2835 37.2046 63.941 37.246C53.4457 37.3759 31.5207 37.6474 16 37.8395Z" stroke="#D78E00" stroke-width="2" stroke-linecap="round"/>
<path d="M68.5 50.5H59C58.7239 50.5 58.5 50.7239 58.5 51V61.5C58.5 61.7761 58.7239 62 59 62H68.5" stroke="#D78E00" stroke-width="2" stroke-linecap="round"/>
<circle cx="64.5" cy="56.5" r="2.5" fill="#D78E00"/>
<defs>
<clipPath id="clip0_180_434">
<rect width="44" height="29" fill="white" transform="translate(27 9)"/>
</clipPath>
</defs>
</svg>
