<svg width="150" height="150" viewBox="0 0 150 150" fill="none" xmlns="http://www.w3.org/2000/svg">
<g opacity="0.5">
<path d="M109.5 55L85 70" stroke="#FFA900" stroke-width="6"/>
<path d="M64.5 28L40 43" stroke="#FFA900" stroke-width="6"/>
<path d="M63.5 81L39 96" stroke="#FFA900" stroke-width="6"/>
<path d="M110.5 108L86 125" stroke="#FFA900" stroke-width="6"/>
<path d="M85 29L109.5 44" stroke="#FFA900" stroke-width="6"/>
<path d="M40.5 107.5L65 123.5" stroke="#FFA900" stroke-width="6"/>
<path d="M31 61V89" stroke="#FFA900" stroke-width="6"/>
<path d="M120 61V89" stroke="#FFA900" stroke-width="6"/>
<path d="M75 35V63" stroke="#FFA900" stroke-width="6"/>
<path d="M75 87V115" stroke="#FFA900" stroke-width="6"/>
<path d="M40 55L64.5 70" stroke="#FFA900" stroke-width="6"/>
<path d="M84.5 80.5L109 95.5" stroke="#FFA900" stroke-width="6"/>
<path d="M84.5 80.5L109 95.5" stroke="#FFA900" stroke-width="6"/>
<path d="M88 23.5C88 30.4036 82.4036 36 75.5 36C68.5964 36 63 30.4036 63 23.5C63 16.5964 68.5964 11 75.5 11C82.4036 11 88 16.5964 88 23.5ZM68.4453 23.5C68.4453 27.3962 71.6038 30.5547 75.5 30.5547C79.3962 30.5547 82.5547 27.3962 82.5547 23.5C82.5547 19.6038 79.3962 16.4453 75.5 16.4453C71.6038 16.4453 68.4453 19.6038 68.4453 23.5Z" fill="#FFA900"/>
<path d="M132 49.5C132 56.4036 126.404 62 119.5 62C112.596 62 107 56.4036 107 49.5C107 42.5964 112.596 37 119.5 37C126.404 37 132 42.5964 132 49.5ZM112.445 49.5C112.445 53.3962 115.604 56.5547 119.5 56.5547C123.396 56.5547 126.555 53.3962 126.555 49.5C126.555 45.6038 123.396 42.4453 119.5 42.4453C115.604 42.4453 112.445 45.6038 112.445 49.5Z" fill="#FFA900"/>
<path d="M132 100.5C132 107.404 126.404 113 119.5 113C112.596 113 107 107.404 107 100.5C107 93.5964 112.596 88 119.5 88C126.404 88 132 93.5964 132 100.5ZM112.445 100.5C112.445 104.396 115.604 107.555 119.5 107.555C123.396 107.555 126.555 104.396 126.555 100.5C126.555 96.6038 123.396 93.4453 119.5 93.4453C115.604 93.4453 112.445 96.6038 112.445 100.5Z" fill="#FFA900"/>
<path d="M88 126.5C88 133.404 82.4036 139 75.5 139C68.5964 139 63 133.404 63 126.5C63 119.596 68.5964 114 75.5 114C82.4036 114 88 119.596 88 126.5ZM68.4453 126.5C68.4453 130.396 71.6038 133.555 75.5 133.555C79.3962 133.555 82.5547 130.396 82.5547 126.5C82.5547 122.604 79.3962 119.445 75.5 119.445C71.6038 119.445 68.4453 122.604 68.4453 126.5Z" fill="#FFA900"/>
<path d="M43 100.5C43 107.404 37.4036 113 30.5 113C23.5964 113 18 107.404 18 100.5C18 93.5964 23.5964 88 30.5 88C37.4036 88 43 93.5964 43 100.5ZM23.4453 100.5C23.4453 104.396 26.6038 107.555 30.5 107.555C34.3962 107.555 37.5547 104.396 37.5547 100.5C37.5547 96.6038 34.3962 93.4453 30.5 93.4453C26.6038 93.4453 23.4453 96.6038 23.4453 100.5Z" fill="#FFA900"/>
<path d="M43 49.5C43 56.4036 37.4036 62 30.5 62C23.5964 62 18 56.4036 18 49.5C18 42.5964 23.5964 37 30.5 37C37.4036 37 43 42.5964 43 49.5ZM23.4453 49.5C23.4453 53.3962 26.6038 56.5547 30.5 56.5547C34.3962 56.5547 37.5547 53.3962 37.5547 49.5C37.5547 45.6038 34.3962 42.4453 30.5 42.4453C26.6038 42.4453 23.4453 45.6038 23.4453 49.5Z" fill="#FFA900"/>
<path d="M88 75C88 82.1797 82.1797 88 75 88C67.8203 88 62 82.1797 62 75C62 67.8203 67.8203 62 75 62C82.1797 62 88 67.8203 88 75ZM67.6631 75C67.6631 79.052 70.948 82.3369 75 82.3369C79.052 82.3369 82.3369 79.052 82.3369 75C82.3369 70.948 79.052 67.6631 75 67.6631C70.948 67.6631 67.6631 70.948 67.6631 75Z" fill="#FFA900"/>
</g>
</svg>
