<svg width="82" height="82" viewBox="0 0 82 82" fill="none" xmlns="http://www.w3.org/2000/svg">
<path d="M40.9728 11C32.1681 11 24.9993 18.1551 24.9993 26.9428C24.9993 32.4808 27.8511 37.3733 32.1606 40.2369C19.9213 44.0021 11.0005 55.3905 11.0005 68.8272C10.9946 69.0928 11.0419 69.3569 11.1397 69.604C11.2374 69.8511 11.3837 70.0763 11.5698 70.2662C11.7559 70.4561 11.9782 70.607 12.2236 70.7101C12.4689 70.8131 12.7324 70.8662 12.9986 70.8662C13.2648 70.8662 13.5284 70.8131 13.7737 70.7101C14.0191 70.607 14.2414 70.4561 14.4275 70.2662C14.6136 70.0763 14.7598 69.8511 14.8576 69.604C14.9554 69.3569 15.0027 69.0928 14.9968 68.8272C14.9968 54.485 26.603 42.9011 40.9728 42.9011C55.3425 42.9011 66.9643 54.485 66.9643 68.8272C66.9395 69.103 66.9725 69.381 67.0613 69.6434C67.15 69.9058 67.2926 70.1469 67.4798 70.3513C67.667 70.5557 67.8949 70.7189 68.1488 70.8306C68.4027 70.9423 68.6772 71 68.9547 71C69.2322 71 69.5066 70.9423 69.7605 70.8306C70.0145 70.7189 70.2423 70.5557 70.4296 70.3513C70.6168 70.1469 70.7593 69.9058 70.8481 69.6434C70.9368 69.381 70.9698 69.103 70.945 68.8272C70.945 55.3918 62.0301 44.0033 49.7927 40.2369C54.1065 37.3732 56.9619 32.4807 56.9619 26.9428C56.9619 18.1551 49.7775 11 40.9728 11ZM40.9728 14.973C47.6177 14.973 52.9656 20.3106 52.9656 26.9428C52.9656 33.575 47.6177 38.9125 40.9728 38.9125C34.3278 38.9125 28.9956 33.575 28.9956 26.9428C28.9956 20.3106 34.3278 14.973 40.9728 14.973Z" fill="#FFA900"/>
</svg>
